<?xml version="1.0" encoding="UTF-8"?>
<svg version="1.1" xmlns="http://www.w3.org/2000/svg" width="512" height="512">
<path d="M0 0 C1.36050224 -0.01062721 1.36050224 -0.01062721 2.74848938 -0.02146912 C3.73613281 -0.0189917 4.72377625 -0.01651428 5.74134827 -0.01396179 C6.78728653 -0.01907272 7.83322479 -0.02418365 8.91085815 -0.02944946 C12.37142138 -0.04335978 15.83178578 -0.04238762 19.29237366 -0.04008484 C21.69606602 -0.04397089 24.0997577 -0.04830537 26.50344849 -0.05307007 C31.54305751 -0.06053532 36.58259648 -0.0602387 41.62220764 -0.05497742 C48.08317221 -0.04918155 54.54385023 -0.0661154 61.00476742 -0.08932209 C65.96927571 -0.10404718 70.93371479 -0.1049328 75.89824104 -0.10181236 C78.28049347 -0.10232616 80.66274972 -0.10757481 83.044981 -0.11762428 C86.37494964 -0.12994771 89.70435749 -0.12322125 93.03431702 -0.11161804 C94.51274582 -0.12308365 94.51274582 -0.12308365 96.02104187 -0.13478088 C104.56730305 -0.06889306 104.56730305 -0.06889306 108.45252991 3.26069641 C109.473008 5.01464313 110.49077608 6.77192397 111.42518616 8.57319641 C112.46463072 10.49908039 112.46463072 10.49908039 114.89002991 12.19819641 C120.24380395 16.50733162 123.18403168 22.56185171 124.45252991 29.26069641 C124.77117137 33.55871629 124.80086031 37.8505926 124.83143616 42.15913391 C124.84843063 43.38983612 124.86542511 44.62053833 124.88293457 45.88853455 C124.93591034 49.80420362 124.97631879 53.71986236 125.01502991 57.63569641 C125.0579403 61.57290455 125.10552029 65.51003258 125.15783691 69.4471283 C125.18987651 71.89430997 125.21674052 74.34156566 125.23806763 76.78886414 C125.25155746 77.88735687 125.2650473 78.98584961 125.27894592 80.11763 C125.28845779 81.08912994 125.29796967 82.06062988 125.30776978 83.06156921 C125.20828126 85.23615915 125.20828126 85.23615915 126.45252991 86.26069641 C126.55158143 88.09642272 126.58052198 89.93597216 126.58192444 91.77436829 C126.5850766 92.95228943 126.58822876 94.13021057 126.59147644 95.34382629 C126.58844009 97.26720825 126.58844009 97.26720825 126.58534241 99.22944641 C126.58629913 100.53522644 126.58725586 101.84100647 126.58824158 103.18635559 C126.58971824 105.95382363 126.58756502 108.72125945 126.582901 111.48872375 C126.57720371 115.0433229 126.58048289 118.59784656 126.58647346 122.15244293 C126.59094737 125.53228355 126.58781877 128.91210365 126.58534241 132.29194641 C126.58736664 133.57420105 126.58939087 134.85645569 126.59147644 136.17756653 C126.5867482 137.94444824 126.5867482 137.94444824 126.58192444 139.74702454 C126.58112885 140.78991638 126.58033325 141.83280823 126.57951355 142.90730286 C126.45252991 145.26069641 126.45252991 145.26069641 125.45252991 146.26069641 C125.34313187 148.49483731 125.30559323 150.7324948 125.29431152 152.96928406 C125.28937355 153.67988373 125.28443557 154.39048341 125.27934796 155.12261641 C125.26388902 157.52459763 125.25558755 159.92655189 125.24720764 162.3285675 C125.2376307 164.04577369 125.22762073 165.76297751 125.21720886 167.48017883 C125.19001067 172.17813083 125.16905086 176.87609288 125.14920688 181.57408094 C125.12724312 186.54333716 125.09986215 191.51256372 125.07315063 196.48179626 C125.02872921 204.89066699 124.98804132 213.29954912 124.94984436 221.70845032 C124.90169139 232.30587661 124.8478065 242.90326463 124.79186058 253.50065231 C124.73771236 263.76180166 124.68622693 274.02296406 124.63612366 284.28413391 C124.63122406 285.28757434 124.62632445 286.29101477 124.62127638 287.32486248 C124.52114138 308.00566903 124.43238434 328.68606071 124.46083069 349.36714172 C124.46211454 350.44805002 124.46211454 350.44805002 124.46342432 351.55079484 C124.47203304 358.72167232 124.48782109 365.89245487 124.51806641 373.0632782 C124.52370984 375.24838749 124.5292939 377.43349694 124.5348053 379.61860657 C124.5413595 380.60001743 124.5479137 381.5814283 124.55466652 382.59257889 C124.55613371 383.4690797 124.5576009 384.34558052 124.55911255 385.24864197 C124.56265275 386.00612543 124.56619295 386.76360889 124.56984043 387.5440464 C124.45252991 389.26069641 124.45252991 389.26069641 123.45252991 390.26069641 C123.03318804 393.78407973 122.67990459 397.31051634 122.34315491 400.84272766 C121.26150789 404.9937853 120.03576714 406.0198673 116.45252991 408.26069641 C83.79013843 426.56180292 28.53440309 420.56530896 -6.23497009 412.94819641 C-7.07850037 412.77199768 -7.92203064 412.59579895 -8.79112244 412.41426086 C-14.43958017 411.04680624 -18.91512985 408.9410209 -22.54747009 404.26069641 C-23.63340759 400.64741516 -23.63340759 400.64741516 -23.92247009 396.94819641 C-23.91796598 392.78296981 -23.91796598 392.78296981 -25.54747009 389.26069641 C-25.63915503 387.69523254 -25.66028286 386.12559866 -25.65405273 384.5574646 C-25.65258554 383.53111216 -25.65111835 382.50475971 -25.6496067 381.44730568 C-25.6430525 380.30299269 -25.6364983 379.1586797 -25.62974548 377.97969055 C-25.62710882 376.77008856 -25.62447216 375.56048656 -25.6217556 374.31422997 C-25.6157438 371.63615163 -25.60802375 368.95813339 -25.59776115 366.28007317 C-25.56977602 358.76599427 -25.56387085 351.2518687 -25.55577087 343.73774719 C-25.55475856 342.92965272 -25.55374625 342.12155825 -25.55270326 341.28897607 C-25.52753041 320.23625927 -25.62413546 299.18418918 -25.73106384 278.13179016 C-25.73596344 277.16714104 -25.74086305 276.20249192 -25.74591112 275.20861101 C-25.79618742 265.36992467 -25.84873782 255.53125181 -25.90327585 245.69258821 C-25.95953824 235.54164725 -26.0112994 225.39069571 -26.05946201 215.23971313 C-26.09759716 207.25624724 -26.13949869 199.27280682 -26.18434864 191.28937584 C-26.21078832 186.56919087 -26.23565468 181.84901061 -26.25654411 177.12879753 C-26.27601371 172.75233167 -26.30012584 168.37591687 -26.32796097 163.99949646 C-26.33734706 162.39537529 -26.3450167 160.79124306 -26.35088921 159.18710518 C-26.35911428 157.01015839 -26.37337536 154.83333548 -26.38925171 152.65643311 C-26.39570426 151.43781806 -26.40215681 150.21920301 -26.40880489 148.96366024 C-26.24057977 146.34426995 -26.24057977 146.34426995 -27.54747009 145.26069641 C-27.64652161 143.4249701 -27.67546216 141.58542066 -27.67686462 139.74702454 C-27.68001678 138.56910339 -27.68316895 137.39118225 -27.68641663 136.17756653 C-27.6843924 134.89531189 -27.68236816 133.61305725 -27.68028259 132.29194641 C-27.68123932 130.98616638 -27.68219604 129.68038635 -27.68318176 128.33503723 C-27.68465842 125.56756919 -27.68250521 122.80013337 -27.67784119 120.03266907 C-27.6721439 116.47806992 -27.67542307 112.92354627 -27.68141365 109.36894989 C-27.68588756 105.98910927 -27.68275895 102.60928918 -27.68028259 99.22944641 C-27.68230682 97.94719177 -27.68433105 96.66493713 -27.68641663 95.34382629 C-27.68326447 94.16590515 -27.6801123 92.98798401 -27.67686462 91.77436829 C-27.67606903 90.73147644 -27.67527344 89.68858459 -27.67445374 88.61408997 C-27.54747009 86.26069641 -27.54747009 86.26069641 -26.54747009 85.26069641 C-26.44520146 83.53399069 -26.41176436 81.80316128 -26.40562439 80.07344055 C-26.39507271 78.41019493 -26.39507271 78.41019493 -26.38430786 76.71334839 C-26.38014359 75.5030748 -26.37597931 74.29280121 -26.37168884 73.04585266 C-26.34847385 70.49701643 -26.32435586 67.94818829 -26.29942322 65.39936829 C-26.26315978 61.37064229 -26.2333522 57.34206382 -26.22154236 53.31318665 C-26.20599194 49.43204165 -26.16571348 45.5517659 -26.12168884 41.67085266 C-26.12359726 40.47879715 -26.12550568 39.28674164 -26.12747192 38.05856323 C-25.96862095 27.10434539 -23.31917869 19.07385412 -15.54747009 11.26069641 C-15.03184509 10.76569641 -14.51622009 10.27069641 -13.98497009 9.76069641 C-12.31469649 8.117247 -12.31469649 8.117247 -10.60997009 5.19819641 C-7.63438582 0.96024305 -5.08622244 0.01327998 0 0 Z " fill="#F9C90A" transform="translate(206.54747009277344,46.73930358886719)"/>
<path d="M0 0 C1.36050224 -0.01062721 1.36050224 -0.01062721 2.74848938 -0.02146912 C3.73613281 -0.0189917 4.72377625 -0.01651428 5.74134827 -0.01396179 C6.78728653 -0.01907272 7.83322479 -0.02418365 8.91085815 -0.02944946 C12.37142138 -0.04335978 15.83178578 -0.04238762 19.29237366 -0.04008484 C21.69606602 -0.04397089 24.0997577 -0.04830537 26.50344849 -0.05307007 C31.54305751 -0.06053532 36.58259648 -0.0602387 41.62220764 -0.05497742 C48.08317221 -0.04918155 54.54385023 -0.0661154 61.00476742 -0.08932209 C65.96927571 -0.10404718 70.93371479 -0.1049328 75.89824104 -0.10181236 C78.28049347 -0.10232616 80.66274972 -0.10757481 83.044981 -0.11762428 C86.37494964 -0.12994771 89.70435749 -0.12322125 93.03431702 -0.11161804 C94.51274582 -0.12308365 94.51274582 -0.12308365 96.02104187 -0.13478088 C104.56730305 -0.06889306 104.56730305 -0.06889306 108.45252991 3.26069641 C109.473008 5.01464313 110.49077608 6.77192397 111.42518616 8.57319641 C112.46463072 10.49908039 112.46463072 10.49908039 114.89002991 12.19819641 C120.24380395 16.50733162 123.18403168 22.56185171 124.45252991 29.26069641 C124.77117137 33.55871629 124.80086031 37.8505926 124.83143616 42.15913391 C124.84843063 43.38983612 124.86542511 44.62053833 124.88293457 45.88853455 C124.93591034 49.80420362 124.97631879 53.71986236 125.01502991 57.63569641 C125.0579403 61.57290455 125.10552029 65.51003258 125.15783691 69.4471283 C125.18987651 71.89430997 125.21674052 74.34156566 125.23806763 76.78886414 C125.25155746 77.88735687 125.2650473 78.98584961 125.27894592 80.11763 C125.28845779 81.08912994 125.29796967 82.06062988 125.30776978 83.06156921 C125.20828126 85.23615915 125.20828126 85.23615915 126.45252991 86.26069641 C126.55158143 88.09642272 126.58052198 89.93597216 126.58192444 91.77436829 C126.5850766 92.95228943 126.58822876 94.13021057 126.59147644 95.34382629 C126.58844009 97.26720825 126.58844009 97.26720825 126.58534241 99.22944641 C126.58629913 100.53522644 126.58725586 101.84100647 126.58824158 103.18635559 C126.58971824 105.95382363 126.58756502 108.72125945 126.582901 111.48872375 C126.57720371 115.0433229 126.58048289 118.59784656 126.58647346 122.15244293 C126.59094737 125.53228355 126.58781877 128.91210365 126.58534241 132.29194641 C126.58736664 133.57420105 126.58939087 134.85645569 126.59147644 136.17756653 C126.5867482 137.94444824 126.5867482 137.94444824 126.58192444 139.74702454 C126.58112885 140.78991638 126.58033325 141.83280823 126.57951355 142.90730286 C126.45252991 145.26069641 126.45252991 145.26069641 125.45252991 146.26069641 C125.34313187 148.49483731 125.30559323 150.7324948 125.29431152 152.96928406 C125.28937355 153.67988373 125.28443557 154.39048341 125.27934796 155.12261641 C125.26388902 157.52459763 125.25558755 159.92655189 125.24720764 162.3285675 C125.2376307 164.04577369 125.22762073 165.76297751 125.21720886 167.48017883 C125.19001067 172.17813083 125.16905086 176.87609288 125.14920688 181.57408094 C125.12724312 186.54333716 125.09986215 191.51256372 125.07315063 196.48179626 C125.02872921 204.89066699 124.98804132 213.29954912 124.94984436 221.70845032 C124.90169139 232.30587661 124.8478065 242.90326463 124.79186058 253.50065231 C124.73771236 263.76180166 124.68622693 274.02296406 124.63612366 284.28413391 C124.63122406 285.28757434 124.62632445 286.29101477 124.62127638 287.32486248 C124.52114138 308.00566903 124.43238434 328.68606071 124.46083069 349.36714172 C124.46211454 350.44805002 124.46211454 350.44805002 124.46342432 351.55079484 C124.47203304 358.72167232 124.48782109 365.89245487 124.51806641 373.0632782 C124.52370984 375.24838749 124.5292939 377.43349694 124.5348053 379.61860657 C124.5413595 380.60001743 124.5479137 381.5814283 124.55466652 382.59257889 C124.55613371 383.4690797 124.5576009 384.34558052 124.55911255 385.24864197 C124.56265275 386.00612543 124.56619295 386.76360889 124.56984043 387.5440464 C124.45252991 389.26069641 124.45252991 389.26069641 123.45252991 390.26069641 C123.03318804 393.78407973 122.67990459 397.31051634 122.34315491 400.84272766 C121.26150789 404.9937853 120.03576714 406.0198673 116.45252991 408.26069641 C83.79013843 426.56180292 28.53440309 420.56530896 -6.23497009 412.94819641 C-7.07850037 412.77199768 -7.92203064 412.59579895 -8.79112244 412.41426086 C-14.43958017 411.04680624 -18.91512985 408.9410209 -22.54747009 404.26069641 C-23.63340759 400.64741516 -23.63340759 400.64741516 -23.92247009 396.94819641 C-23.91796598 392.78296981 -23.91796598 392.78296981 -25.54747009 389.26069641 C-25.63915503 387.69523254 -25.66028286 386.12559866 -25.65405273 384.5574646 C-25.65258554 383.53111216 -25.65111835 382.50475971 -25.6496067 381.44730568 C-25.6430525 380.30299269 -25.6364983 379.1586797 -25.62974548 377.97969055 C-25.62710882 376.77008856 -25.62447216 375.56048656 -25.6217556 374.31422997 C-25.6157438 371.63615163 -25.60802375 368.95813339 -25.59776115 366.28007317 C-25.56977602 358.76599427 -25.56387085 351.2518687 -25.55577087 343.73774719 C-25.55475856 342.92965272 -25.55374625 342.12155825 -25.55270326 341.28897607 C-25.52753041 320.23625927 -25.62413546 299.18418918 -25.73106384 278.13179016 C-25.73596344 277.16714104 -25.74086305 276.20249192 -25.74591112 275.20861101 C-25.79618742 265.36992467 -25.84873782 255.53125181 -25.90327585 245.69258821 C-25.95953824 235.54164725 -26.0112994 225.39069571 -26.05946201 215.23971313 C-26.09759716 207.25624724 -26.13949869 199.27280682 -26.18434864 191.28937584 C-26.21078832 186.56919087 -26.23565468 181.84901061 -26.25654411 177.12879753 C-26.27601371 172.75233167 -26.30012584 168.37591687 -26.32796097 163.99949646 C-26.33734706 162.39537529 -26.3450167 160.79124306 -26.35088921 159.18710518 C-26.35911428 157.01015839 -26.37337536 154.83333548 -26.38925171 152.65643311 C-26.39570426 151.43781806 -26.40215681 150.21920301 -26.40880489 148.96366024 C-26.24057977 146.34426995 -26.24057977 146.34426995 -27.54747009 145.26069641 C-27.64652161 143.4249701 -27.67546216 141.58542066 -27.67686462 139.74702454 C-27.68001678 138.56910339 -27.68316895 137.39118225 -27.68641663 136.17756653 C-27.6843924 134.89531189 -27.68236816 133.61305725 -27.68028259 132.29194641 C-27.68123932 130.98616638 -27.68219604 129.68038635 -27.68318176 128.33503723 C-27.68465842 125.56756919 -27.68250521 122.80013337 -27.67784119 120.03266907 C-27.6721439 116.47806992 -27.67542307 112.92354627 -27.68141365 109.36894989 C-27.68588756 105.98910927 -27.68275895 102.60928918 -27.68028259 99.22944641 C-27.68230682 97.94719177 -27.68433105 96.66493713 -27.68641663 95.34382629 C-27.68326447 94.16590515 -27.6801123 92.98798401 -27.67686462 91.77436829 C-27.67606903 90.73147644 -27.67527344 89.68858459 -27.67445374 88.61408997 C-27.54747009 86.26069641 -27.54747009 86.26069641 -26.54747009 85.26069641 C-26.44520146 83.53399069 -26.41176436 81.80316128 -26.40562439 80.07344055 C-26.39507271 78.41019493 -26.39507271 78.41019493 -26.38430786 76.71334839 C-26.38014359 75.5030748 -26.37597931 74.29280121 -26.37168884 73.04585266 C-26.34847385 70.49701643 -26.32435586 67.94818829 -26.29942322 65.39936829 C-26.26315978 61.37064229 -26.2333522 57.34206382 -26.22154236 53.31318665 C-26.20599194 49.43204165 -26.16571348 45.5517659 -26.12168884 41.67085266 C-26.12359726 40.47879715 -26.12550568 39.28674164 -26.12747192 38.05856323 C-25.96862095 27.10434539 -23.31917869 19.07385412 -15.54747009 11.26069641 C-15.03184509 10.76569641 -14.51622009 10.27069641 -13.98497009 9.76069641 C-12.31469649 8.117247 -12.31469649 8.117247 -10.60997009 5.19819641 C-7.63438582 0.96024305 -5.08622244 0.01327998 0 0 Z M-4.95146179 17.61845398 C-8.54747009 18.26069641 -8.54747009 18.26069641 -11.54747009 18.26069641 C-13.56845436 20.03091645 -13.56845436 20.03091645 -15.54747009 22.26069641 C-16.23956965 22.86221734 -16.93166921 23.46373826 -17.64474148 24.08348709 C-19.95551196 26.72760091 -20.04900082 27.88228846 -20.05362797 31.34604549 C-20.06467566 32.37852789 -20.07572334 33.41101028 -20.08710581 34.47478002 C-20.07886504 35.60754781 -20.07062428 36.74031559 -20.06213379 37.90740967 C-20.06907932 39.11194748 -20.07602485 40.3164853 -20.08318084 41.55752426 C-20.09833159 44.90260675 -20.09549039 48.24680253 -20.08502781 51.59184563 C-20.07804679 55.19862447 -20.09402537 58.80531158 -20.10702515 62.4120636 C-20.12868914 69.47854093 -20.12853212 76.54485738 -20.1203996 83.61135703 C-20.11410453 89.35398878 -20.11523209 95.09657354 -20.12167168 100.83920479 C-20.12257333 101.65595078 -20.12347499 102.47269677 -20.12440396 103.31419264 C-20.12625513 104.97331286 -20.12811769 106.63243307 -20.12999152 108.29155327 C-20.14657845 123.85706521 -20.13784333 139.42248656 -20.12100594 154.98799307 C-20.10630923 169.23343135 -20.12093535 183.47865871 -20.14977611 197.72406983 C-20.17915801 212.3454741 -20.19014586 226.96678099 -20.18059391 241.5882135 C-20.17957134 243.24159974 -20.17857673 244.894986 -20.1776104 246.54837227 C-20.17713401 247.36190129 -20.17665762 248.1754303 -20.17616679 249.01361172 C-20.174001 254.74961527 -20.18381551 260.4855268 -20.19838142 266.22150993 C-20.21588394 273.2115434 -20.21581761 280.20130793 -20.19302977 287.19133072 C-20.18186816 290.7586371 -20.17876758 294.32546932 -20.19733047 297.89275551 C-20.21718393 301.7577529 -20.19839346 305.6220051 -20.17565918 309.48699951 C-20.18749491 310.61753657 -20.19933064 311.74807363 -20.21152502 312.91286939 C-20.17965148 319.1203558 -20.17965148 319.1203558 -17.16177273 324.41134739 C-14.71951022 326.1389958 -12.50493177 327.4569432 -9.73497009 328.57319641 C-8.35309509 329.13007141 -6.97122009 329.68694641 -5.54747009 330.26069641 C-12.47747009 334.22069641 -12.47747009 334.22069641 -19.54747009 338.26069641 C-18.88747009 338.92069641 -18.22747009 339.58069641 -17.54747009 340.26069641 C-16.21909119 339.37704407 -16.21909119 339.37704407 -14.86387634 338.47554016 C-13.61388587 337.71426777 -12.36250347 336.95527764 -11.10997009 336.19819641 C-10.25048767 335.6132843 -10.25048767 335.6132843 -9.37364197 335.01655579 C-4.50665966 332.16697547 -0.26331951 332.1737499 5.22645569 332.64692688 C13.83300618 333.26899391 22.38495093 333.42424458 31.01112366 333.42866516 C32.53554309 333.43189547 34.05996224 333.43526071 35.5843811 333.43875122 C38.74982928 333.44467122 41.91525044 333.44659841 45.08070374 333.44599915 C48.28518805 333.44591775 51.48952983 333.45289422 54.69398499 333.46650696 C59.38305595 333.48629443 64.07201244 333.49395989 68.76112366 333.49116516 C69.88791786 333.49118404 69.88791786 333.49118404 71.03747559 333.49120331 C79.49816578 333.47839585 87.78044935 333.20713737 96.16737366 331.97554016 C101.53859883 331.19260337 105.43634955 330.99440871 110.01112366 334.28413391 C110.52803772 334.73014954 111.04495178 335.17616516 111.57752991 335.63569641 C112.16405334 336.07397766 112.75057678 336.51225891 113.35487366 336.96382141 C114.75459366 338.01934797 116.10966405 339.13372539 117.45252991 340.26069641 C118.11252991 339.60069641 118.77252991 338.94069641 119.45252991 338.26069641 C113.56843674 332.78980968 113.56843674 332.78980968 106.45252991 330.26069641 C106.45252991 329.60069641 106.45252991 328.94069641 106.45252991 328.26069641 C107.75190491 328.16788391 107.75190491 328.16788391 109.07752991 328.07319641 C113.19672758 327.08153771 116.01610633 325.73906413 118.45252991 322.26069641 C119.35787216 318.32055911 119.25747663 314.43900245 119.20770264 310.41107178 C119.21635701 309.19680687 119.22501139 307.98254195 119.23392802 306.73148113 C119.25179005 303.36351154 119.24272221 299.99756245 119.22221887 296.62973654 C119.20659432 292.99707184 119.22550712 289.36456482 119.24002075 285.73191833 C119.26285806 278.61703101 119.25336281 271.50253629 119.23251989 264.38765674 C119.21624337 258.60641159 119.21203446 252.82527368 119.21648598 247.04400826 C119.21743199 245.81033333 119.21743199 245.81033333 119.21839711 244.55173569 C119.21974315 242.88101726 119.22112272 241.21029885 119.22253547 239.53958047 C119.23447502 223.8700756 119.21039851 208.20078612 119.17351738 192.53133029 C119.14261825 179.08077253 119.14025585 165.63046271 119.15931702 152.17988586 C119.18141922 136.56537534 119.18758284 120.95100385 119.16699439 105.3364864 C119.16483142 103.67218055 119.16268232 102.00787469 119.16054726 100.3435688 C119.15948089 99.52466584 119.15841453 98.70576288 119.15731585 97.86204467 C119.15084121 92.0859973 119.15561778 86.31002136 119.16457176 80.53397942 C119.17509735 73.49744065 119.16763887 66.46119287 119.13711598 59.42470794 C119.12196695 55.83323134 119.11484949 52.24221443 119.12930679 48.65072441 C119.14468144 44.76131509 119.12145594 40.87269451 119.09417725 36.9833374 C119.10464873 35.84278772 119.11512022 34.70223804 119.12590903 33.52712625 C119.20262427 27.49013995 119.20262427 27.49013995 116.02259541 22.63090611 C115.17447379 22.17873691 114.32635218 21.72656771 113.45252991 21.26069641 C112.57999573 20.44592834 112.57999573 20.44592834 111.68983459 19.61470032 C97.15840723 10.8203642 70.0050744 14.8043097 53.45643616 14.86958313 C49.07104729 14.88672551 44.68620764 14.87676153 40.30083847 14.85886574 C36.8584751 14.84790155 33.41623696 14.85153038 29.97386932 14.85924911 C28.35875122 14.86121365 26.74362076 14.85892819 25.12851715 14.85181046 C14.85654595 14.81642147 5.14902778 15.71647334 -4.95146179 17.61845398 Z " fill="#E5BB0E" transform="translate(206.54747009277344,46.73930358886719)"/>
<path d="M0 0 C1.67749637 -0.00390245 3.35499177 -0.0082402 5.03248596 -0.01298523 C8.53462942 -0.02040007 12.03667202 -0.02019296 15.53881836 -0.01489258 C19.08289327 -0.01027589 22.6266239 -0.01712839 26.1706543 -0.03540039 C79.35916426 -0.30702405 79.35916426 -0.30702405 86.44140625 6.30078125 C87.28955304 6.75294541 88.13769983 7.20510958 89.01154804 7.67097569 C92.92435923 11.90576297 92.13414305 16.4587817 92.08305359 22.02342224 C92.09155911 23.23612716 92.10006463 24.44883208 92.10882789 25.69828564 C92.12728304 29.06634407 92.12324627 32.43302369 92.10968864 35.80101645 C92.10044876 39.43235477 92.11991402 43.06355458 92.13566589 46.69485474 C92.1617818 53.80948705 92.16065681 60.92386693 92.14962771 68.03852897 C92.14107605 73.82026129 92.1418947 79.60192045 92.1494236 85.38365364 C92.15047849 86.20595035 92.15153338 87.02824707 92.15262023 87.87546187 C92.15479112 89.54585609 92.15697789 91.2162503 92.15918038 92.88664449 C92.17862046 108.55804578 92.16660277 124.22930533 92.14439443 139.90069503 C92.12614482 153.35097125 92.13704339 166.80097297 92.16870117 180.2512207 C92.20544736 195.86426733 92.2224912 211.47714247 92.2092889 227.09023243 C92.20794777 228.75485263 92.20663879 230.41947285 92.20536232 232.08409309 C92.20441632 233.31267895 92.20441632 233.31267895 92.20345121 234.56608472 C92.20042154 240.34117627 92.21169494 246.11613868 92.2286129 251.89120293 C92.2489186 258.92885626 92.24809819 265.96612217 92.2199805 273.00375514 C92.20618833 276.5954338 92.20206436 280.18643572 92.22393036 283.77808952 C92.24730839 287.66947239 92.22431379 291.5597839 92.19657898 295.45115662 C92.21767865 297.15863505 92.21767865 297.15863505 92.23920459 298.900608 C92.13227315 306.31446297 92.13227315 306.31446297 90.17399371 309.11020672 C86.88642528 312.00286534 83.75114887 312.99294249 79.44140625 313.30078125 C79.44140625 313.96078125 79.44140625 314.62078125 79.44140625 315.30078125 C80.43140625 315.61015625 80.43140625 315.61015625 81.44140625 315.92578125 C85.55746888 317.81230996 88.90017655 320.50646104 92.44140625 323.30078125 C91.78140625 323.96078125 91.12140625 324.62078125 90.44140625 325.30078125 C89.63960937 324.62789063 88.8378125 323.955 88.01171875 323.26171875 C86.865228 322.39715196 85.71667138 321.53532003 84.56640625 320.67578125 C84.04949219 320.22976563 83.53257812 319.78375 83 319.32421875 C77.73115773 315.53538835 72.93794672 316.46029304 66.89237976 317.34806824 C58.51632086 318.48600356 50.18509193 318.53139135 41.75 318.53125 C40.61577354 318.531926 40.61577354 318.531926 39.45863342 318.53261566 C34.73350155 318.53269358 30.00853001 318.51647139 25.28344727 318.49639893 C22.08121283 318.48558826 18.87902164 318.48593074 15.67677212 318.48653698 C12.53728588 318.48626169 9.39782584 318.4807241 6.25834846 318.47353554 C4.78475198 318.47041292 3.31115262 318.46839699 1.83755302 318.46764183 C-6.77558875 318.45838563 -15.31754372 318.24469916 -23.90342045 317.50273418 C-29.76101073 317.06524144 -33.71235951 318.15439318 -38.62109375 321.23828125 C-39.30751953 321.62435547 -39.99394531 322.01042969 -40.70117188 322.40820312 C-42.34087961 323.33698862 -43.95343389 324.31348911 -45.55859375 325.30078125 C-45.55859375 324.31078125 -45.55859375 323.32078125 -45.55859375 322.30078125 C-41.26859375 319.99078125 -36.97859375 317.68078125 -32.55859375 315.30078125 C-34.49734375 314.37265625 -36.43609375 313.44453125 -38.43359375 312.48828125 C-44.30859375 309.67578125 -44.30859375 309.67578125 -46.55859375 306.30078125 C-46.81274408 304.04239047 -46.81274408 304.04239047 -46.81865597 301.33848 C-46.82572156 300.30798865 -46.83278715 299.2774973 -46.84006685 298.21577895 C-46.83765177 297.08009832 -46.83523668 295.9444177 -46.83274841 294.77432251 C-46.84060343 292.96879742 -46.84060343 292.96879742 -46.84861714 291.12679708 C-46.8610526 287.77969692 -46.86445991 284.43280655 -46.86402023 281.08569765 C-46.86566599 277.47823946 -46.87872791 273.87081975 -46.89021301 270.26338196 C-46.91308017 262.37298023 -46.92098533 254.48260537 -46.92603946 246.59217501 C-46.92929423 241.66716262 -46.93581534 236.74215807 -46.94304085 231.81715012 C-46.96260835 218.18602817 -46.9790119 204.55491352 -46.98191738 190.92377663 C-46.98210495 190.05119448 -46.98229252 189.17861233 -46.98248577 188.2795883 C-46.98285203 186.51059079 -46.98321573 184.74159328 -46.98357689 182.97259577 C-46.9837597 182.0944419 -46.98394251 181.21628803 -46.98413086 180.31152344 C-46.98431141 179.43230014 -46.98449196 178.55307684 -46.98467798 177.6472104 C-46.9882209 163.3952536 -47.01524991 149.14344777 -47.05262875 134.89154334 C-47.09068206 120.26566561 -47.11007464 105.63986285 -47.11037689 91.01393449 C-47.11096211 82.79939186 -47.11949518 74.58502935 -47.14837456 66.37053299 C-47.17284865 59.37683717 -47.18019834 52.38338717 -47.16512703 45.38966013 C-47.15794186 41.82032029 -47.1588836 38.25146624 -47.18153763 34.6821804 C-47.20584777 30.81497199 -47.19153683 26.94846204 -47.17332458 23.08120728 C-47.18652455 21.94998809 -47.19972452 20.81876891 -47.21332449 19.65327036 C-47.13096445 12.02939002 -47.13096445 12.02939002 -44.10220432 8.17387962 C-43.26281283 7.55575716 -42.42342134 6.9376347 -41.55859375 6.30078125 C-41.12546875 5.72328125 -40.69234375 5.14578125 -40.24609375 4.55078125 C-37.96795397 2.8632703 -35.78470241 2.79121036 -33.0158844 2.54740906 C-30.26480692 2.27129512 -27.58862527 1.7789405 -24.86694336 1.29223633 C-16.56782379 0.00506591 -8.37646492 -0.00824929 0 0 Z M-28.08203125 19.01953125 C-31.78030403 23.95056163 -34.03724883 29.46745818 -36.24609375 35.17578125 C-36.53162109 35.88694092 -36.81714844 36.59810059 -37.11132812 37.33081055 C-42.48912408 51.99852861 -43.00627831 67.89504119 -42.94677734 83.33813477 C-42.95085695 85.15407626 -42.95620651 86.97001527 -42.96270752 88.78594971 C-42.97622109 93.65577615 -42.97114976 98.52540894 -42.96157026 103.39523816 C-42.95389099 108.52903534 -42.96104182 113.66281766 -42.96572876 118.7966156 C-42.97116203 127.41123381 -42.96405839 136.02577446 -42.94970703 144.64038086 C-42.93338006 154.55443617 -42.93867927 164.46830633 -42.95518625 174.38235718 C-42.96886456 182.94517477 -42.97069011 191.5079371 -42.96287024 200.0707621 C-42.95822907 205.16278641 -42.9574697 210.25472412 -42.96747971 215.34674263 C-42.97624039 220.13636431 -42.96996409 224.92575064 -42.95279694 229.71534729 C-42.94888034 231.4574234 -42.9498815 233.19951984 -42.95658493 234.94158745 C-43.03876669 258.49716543 -39.43265253 285.89093614 -22.68359375 303.92578125 C-13.86052468 311.5508176 -5.85371475 313.05612416 5.62890625 312.96484375 C6.9807173 312.9682222 8.33252537 312.97308331 9.68432617 312.9793396 C12.50176236 312.98666295 15.31839976 312.97615542 18.13574219 312.95263672 C21.72008366 312.92414919 25.30255255 312.94057813 28.88682556 312.97049904 C31.67360156 312.98869722 34.4599445 312.98275765 37.24673462 312.96986008 C39.20185586 312.96497383 41.15699498 312.97997224 43.11206055 312.99551392 C53.17995681 312.8641855 60.17107388 310.49841316 67.62890625 303.67578125 C74.08183286 296.6775369 78.43432102 289.07076007 81.69140625 280.17578125 C81.92553223 279.5506665 82.1596582 278.92555176 82.40087891 278.28149414 C87.25346364 264.11507742 87.8838647 249.53906716 87.82958984 234.72436523 C87.83366672 232.82665711 87.8390148 230.92895136 87.84552002 229.03125 C87.85906586 223.93004493 87.85394847 218.82902417 87.84438276 213.72781634 C87.83672061 208.35817689 87.8438497 202.9885519 87.84854126 197.61891174 C87.85397942 188.60732222 87.84685788 179.59580676 87.83251953 170.58422852 C87.81619185 160.20325139 87.8214903 149.82245106 87.83799875 139.44147819 C87.85166321 130.48637944 87.85350928 121.53133355 87.84568274 112.57622772 C87.84103402 107.24614161 87.84030357 101.91613828 87.85029221 96.58605766 C87.8590324 91.57322132 87.85281275 86.56061044 87.83560944 81.54779816 C87.83168215 79.72103052 87.83271311 77.89424353 87.83939743 76.0674839 C87.91303742 53.87682711 84.41663823 30.99205958 68.47872925 14.18186951 C60.42870277 6.74916969 51.26058523 6.56623762 40.87109375 6.671875 C39.37997261 6.67104437 37.88885157 6.66857767 36.3977356 6.66456604 C33.28944986 6.66172402 30.18189109 6.67625401 27.07373047 6.70385742 C23.10828777 6.73799834 19.14413806 6.73188755 15.17863274 6.71319485 C12.10545236 6.70258261 9.03256831 6.71159965 5.95941544 6.72657967 C4.49792488 6.73172705 3.03640294 6.73132195 1.57491684 6.72503471 C-11.1172159 6.69090679 -19.51083369 9.34946221 -28.08203125 19.01953125 Z " fill="#E9BE0C" transform="translate(233.55859375,61.69921875)"/>
<path d="M0 0 C0.78964645 0.00202423 1.57929291 0.00404846 2.39286804 0.00613403 C3.63425789 0.00350555 3.63425789 0.00350555 4.90072632 0.00082397 C7.65008104 -0.00359537 10.39937199 -0.00065627 13.14872742 0.00271606 C15.0506237 0.00204305 16.9525199 0.00107304 18.85441589 -0.00018311 C22.84591997 -0.00166019 26.83740171 0.00049482 30.8289032 0.00515747 C35.95738248 0.01085476 41.08580944 0.00757582 46.2142868 0.00158501 C50.14321795 -0.00202032 54.0721366 -0.00088215 58.00106812 0.0017128 C59.89259853 0.00238215 61.78413007 0.00155338 63.67565918 -0.00076675 C66.31449918 -0.00329282 68.95325323 0.00054665 71.59208679 0.00613403 C72.77655647 0.00309769 72.77655647 0.00309769 73.98495483 0 C79.3782149 0.02126605 79.3782149 0.02126605 80.49247742 1.13552856 C81.40944498 10.16439224 79.43473758 18.91179678 77.61747742 27.69802856 C77.34437507 29.0565585 77.07223482 30.41528221 76.80107117 31.77420044 C76.27987291 34.38308245 75.74589625 36.9881776 75.20439148 39.5930481 C74.7618724 41.79502063 74.3514638 44.004013 73.99150085 46.22097778 C73.84487 47.10930298 73.69823914 47.99762817 73.54716492 48.91287231 C73.43614441 49.66689331 73.3251239 50.42091431 73.21073914 51.19778442 C72.23985121 53.81706975 70.82818164 54.67860143 68.49247742 56.13552856 C66.26591492 57.04959106 66.26591492 57.04959106 63.86747742 57.76052856 C63.09146179 58.00029419 62.31544617 58.24005981 61.51591492 58.48709106 C45.44999948 61.93275251 23.14426073 63.03637321 8.15263367 55.44412231 C5.49247742 53.13552856 5.49247742 53.13552856 4.64482117 50.06130981 C4.57392273 48.868927 4.50302429 47.67654419 4.42997742 46.44802856 C3.42680848 35.09187563 -0.06664074 24.54731539 -4.32002258 14.01052856 C-6.1531733 9.42477848 -7.1770326 6.0452687 -6.50752258 1.13552856 C-4.73282011 -0.63917391 -2.36362305 0.00931995 0 0 Z " fill="#FECD0B" transform="translate(217.5075225830078,400.8644714355469)"/>
<path d="M0 0 C1.05960938 0.73347656 2.11921875 1.46695312 3.2109375 2.22265625 C4.00757813 2.78855469 4.80421875 3.35445313 5.625 3.9375 C-0.09161568 10.26070191 -8.55511395 12.24200529 -16.67504883 13.56884766 C-17.46053761 13.69743479 -18.2460264 13.82602192 -19.05531788 13.95850563 C-27.38169987 15.22642041 -35.6056933 15.37408527 -44.01171875 15.3359375 C-45.63157786 15.33796839 -47.25143607 15.34088814 -48.87129211 15.34463501 C-52.23174932 15.34900704 -55.59196402 15.34279325 -58.95239258 15.32861328 C-63.21488739 15.31148254 -67.47681675 15.32141993 -71.73929119 15.33933067 C-75.07259737 15.35027334 -78.40577374 15.3466754 -81.73908424 15.3389473 C-83.30923343 15.33697626 -84.87939524 15.33929265 -86.44952965 15.34638596 C-101.29173297 15.39878754 -115.49846075 14.16290496 -128.375 5.9375 C-128.705 5.2775 -129.035 4.6175 -129.375 3.9375 C-127.25288057 2.52584268 -125.11732343 1.19257239 -122.9375 -0.125 C-122.36451172 -0.51494141 -121.79152344 -0.90488281 -121.20117188 -1.30664062 C-116.33669676 -4.154753 -112.09679894 -4.14956067 -106.60986328 -3.67626953 C-97.95373423 -3.05038179 -89.35165046 -2.89893986 -80.67578125 -2.89453125 C-79.1417793 -2.89130227 -77.60777762 -2.8879371 -76.07377625 -2.88444519 C-72.89154344 -2.87852717 -69.70933751 -2.87659794 -66.52709961 -2.87719727 C-62.48992244 -2.87729925 -58.45291968 -2.86357684 -54.41578388 -2.84642506 C-51.25926448 -2.8352103 -48.10278628 -2.83328083 -44.94624901 -2.83380699 C-43.45900044 -2.83264381 -41.9717502 -2.82831821 -40.48452187 -2.82047462 C-31.99142418 -2.779816 -23.83037437 -3.22030426 -15.45036316 -4.73075867 C-9.01440786 -5.42500916 -5.21663779 -3.65164645 0 0 Z " fill="#78D6FE" transform="translate(318.375,382.0625)"/>
<path d="M0 0 C1.05960937 0.73347656 2.11921875 1.46695312 3.2109375 2.22265625 C4.00757813 2.78855469 4.80421875 3.35445313 5.625 3.9375 C-2.09392461 12.47547449 -15.45090445 14.09511376 -26.375 14.9375 C-34.70882134 15.24477219 -43.03964218 15.1192889 -51.375 14.9375 C-51.045 9.3275 -50.715 3.7175 -50.375 -2.0625 C-48.01988281 -2.13597656 -48.01988281 -2.13597656 -45.6171875 -2.2109375 C-30.32471372 -2.72273902 -30.32471372 -2.72273902 -15.1796875 -4.7578125 C-8.85755052 -5.44461847 -5.12861327 -3.59002929 0 0 Z " fill="#71C9EE" transform="translate(318.375,382.0625)"/>
<path d="M0 0 C0.66 0 1.32 0 2 0 C2.00059709 0.58248874 2.00119418 1.16497749 2.00180936 1.76511741 C2.03768432 36.26948685 2.09429396 70.77375822 2.17792095 105.27804528 C2.1879387 109.4187616 2.19778278 113.55947832 2.20751953 117.70019531 C2.2094609 118.52455575 2.21140228 119.34891618 2.21340248 120.19825724 C2.24444421 133.5553946 2.26140918 146.91251478 2.27319422 160.26968142 C2.28559454 173.97002023 2.31307056 187.67026864 2.35461307 201.37055039 C2.37978063 209.82796283 2.39311491 218.2852254 2.39142957 226.74267581 C2.39139987 232.53814033 2.40598143 238.33345192 2.43216428 244.12885687 C2.44684791 247.47526357 2.45282006 250.82109179 2.44580269 254.16756439 C2.43921192 257.79236687 2.45696642 261.41624524 2.48101807 265.04095459 C2.46937744 266.63433014 2.46937744 266.63433014 2.45750165 268.25989509 C2.43132272 273.80154359 2.43132272 273.80154359 4.87130356 278.60583878 C7.26748222 280.1751839 9.56183385 281.259623 12.25 282.25 C13.58804688 282.75273438 13.58804688 282.75273438 14.953125 283.265625 C15.62859375 283.50796875 16.3040625 283.7503125 17 284 C14.50506504 286.81631641 11.73437182 288.40955981 8.4375 290.1875 C7.46683594 290.71730469 6.49617187 291.24710937 5.49609375 291.79296875 C3 293 3 293 1 293 C0.01832014 290.05496043 -0.12437196 288.16984139 -0.12304783 285.10181904 C-0.12503888 284.08566118 -0.12702993 283.06950331 -0.12908131 282.02255279 C-0.12616847 280.90291631 -0.12325563 279.78327983 -0.12025452 278.62971497 C-0.12153615 276.84952478 -0.12153615 276.84952478 -0.12284368 275.03337115 C-0.12420887 271.73367078 -0.12107271 268.43402937 -0.11606562 265.13433611 C-0.1117557 261.5781184 -0.11320793 258.02190257 -0.1139679 254.46568298 C-0.11449279 248.30244831 -0.11134962 242.13922421 -0.10573006 235.9759922 C-0.09761035 227.06494353 -0.09499935 218.15389997 -0.09374207 209.242848 C-0.09155229 194.78600059 -0.08489421 180.32915881 -0.07543945 165.87231445 C-0.06626342 151.82706734 -0.05918352 137.78182177 -0.05493164 123.73657227 C-0.05466892 122.87113172 -0.05440619 122.00569117 -0.05413551 121.11402515 C-0.05283049 116.7724564 -0.05156678 112.43088764 -0.05032361 108.08931887 C-0.03995331 72.05954193 -0.022337 36.02977141 0 0 Z " fill="#7CCADE" transform="translate(185,92)"/>
<path d="M0 0 C0.66 0 1.32 0 2 0 C2.04573711 37.54720702 2.08099868 75.09440986 2.10213066 112.64163908 C2.10463219 117.07033755 2.10722083 121.49903598 2.10986328 125.92773438 C2.1103879 126.80944111 2.11091252 127.69114785 2.11145304 128.59957297 C2.12016532 142.89248708 2.13593979 157.18538517 2.15430559 171.47828977 C2.1729818 186.13455926 2.18411189 200.79082033 2.18817699 215.44710124 C2.19092679 224.4971946 2.19962442 233.54724269 2.21583293 242.59732212 C2.22637172 248.79591504 2.22960771 254.99448442 2.22700275 261.19308566 C2.2257166 264.77403571 2.22774417 268.35490642 2.23841095 271.93584251 C2.24986935 275.81064161 2.24599785 279.68533588 2.24050903 283.56015015 C2.24633472 284.70215421 2.2521604 285.84415828 2.25816262 287.02076852 C2.25418052 288.05235232 2.25019842 289.08393611 2.24609566 290.14678001 C2.2468551 291.04216055 2.24761454 291.93754109 2.24839699 292.86005437 C2 295 2 295 0 297 C-0.69867188 296.50628906 -1.39734375 296.01257813 -2.1171875 295.50390625 C-3.02726562 294.86324219 -3.93734375 294.22257812 -4.875 293.5625 C-5.77992188 292.92441406 -6.68484375 292.28632813 -7.6171875 291.62890625 C-9.87738581 290.00481862 -9.87738581 290.00481862 -12 289 C-12 288.34 -12 287.68 -12 287 C-11.37351562 286.73445313 -10.74703125 286.46890625 -10.1015625 286.1953125 C-8.87566406 285.66550781 -8.87566406 285.66550781 -7.625 285.125 C-6.81289063 284.77695312 -6.00078125 284.42890625 -5.1640625 284.0703125 C-2.86197701 283.07553933 -2.86197701 283.07553933 -1 281 C-0.69298511 278.8667007 -0.69298511 278.8667007 -0.73828697 276.3654232 C-0.73082148 275.38260695 -0.72335599 274.39979069 -0.71566427 273.38719213 C-0.717599 272.29966134 -0.71953374 271.21213055 -0.7215271 270.09164429 C-0.7157347 268.94245722 -0.7099423 267.79327016 -0.70397437 266.60925925 C-0.68986529 263.40990204 -0.68474056 260.21067217 -0.68332577 257.01128864 C-0.67964167 253.56477653 -0.66449123 250.11831308 -0.65071106 246.67182922 C-0.62840314 240.69738649 -0.61341115 234.72296098 -0.60334396 228.74848557 C-0.58877789 220.11033159 -0.56324697 211.47223763 -0.53501268 202.8341188 C-0.48950692 188.82041798 -0.4529078 174.80670854 -0.421875 160.79296875 C-0.39170493 147.17739345 -0.35736178 133.56183925 -0.31738281 119.94628906 C-0.31492126 119.10746875 -0.31245972 118.26864844 -0.30992357 117.40440933 C-0.29754927 113.19642638 -0.28509268 108.98844367 -0.27259517 104.78046107 C-0.16897074 69.85366967 -0.07978621 34.92685368 0 0 Z " fill="#71BDCC" transform="translate(325,88)"/>
<path d="M0 0 C0.90562683 -0.00571014 1.81125366 -0.01142029 2.74432373 -0.01730347 C4.23118179 -0.01898026 4.23118179 -0.01898026 5.74807739 -0.02069092 C6.79386963 -0.02565582 7.83966187 -0.03062073 8.91714478 -0.03573608 C12.3830938 -0.05036329 15.84899708 -0.05716032 19.31497192 -0.06268311 C21.72009279 -0.06843367 24.12521364 -0.07419141 26.53033447 -0.07995605 C31.57589939 -0.09046734 36.62144837 -0.09630932 41.66702271 -0.09979248 C48.13584376 -0.10528039 54.60445467 -0.12931442 61.07320976 -0.15776443 C66.04199848 -0.17637622 71.0107364 -0.18159562 75.97955704 -0.18312836 C78.36460648 -0.18615822 80.74965496 -0.1941979 83.13467026 -0.20731354 C86.469511 -0.22434471 89.80383595 -0.22250083 93.13870239 -0.21600342 C94.12589264 -0.2252182 95.11308289 -0.23443298 96.13018799 -0.243927 C101.07383246 -0.2137142 104.60633004 -0.16560409 108.57278442 3.14044189 C110.44778442 5.70294189 110.44778442 5.70294189 111.57278442 8.14044189 C111.24278442 8.80044189 110.91278442 9.46044189 110.57278442 10.14044189 C109.97193275 9.85769661 109.37108109 9.57495132 108.75202179 9.283638 C102.35576015 6.47218545 97.08586258 5.56117079 90.1411438 5.62286377 C89.15112869 5.61585449 88.16111359 5.60884521 87.14109802 5.60162354 C83.89928346 5.58415431 80.6583564 5.59562716 77.41653442 5.60919189 C75.14549595 5.60649381 72.87445861 5.60260876 70.60342407 5.59759521 C65.85595647 5.59171513 61.10879098 5.60021527 56.36135864 5.61895752 C50.29551897 5.64174575 44.2303874 5.62861471 38.16457367 5.60466766 C33.47863491 5.59016955 28.79286227 5.59483413 24.10691833 5.60517883 C21.87114883 5.60783502 19.63536394 5.60461566 17.39961243 5.59526062 C14.26748061 5.58502898 11.13647373 5.60068896 8.00442505 5.62286377 C6.63723076 5.61071838 6.63723076 5.61071838 5.24241638 5.59832764 C-1.33988133 5.68406404 -6.48821445 7.34570127 -12.42721558 10.14044189 C-10.50238642 3.47757174 -10.50238642 3.47757174 -7.42721558 1.14044189 C-4.61899473 0.20436828 -2.90505145 0.010978 0 0 Z " fill="#AFC0CA" transform="translate(206.42721557617188,46.85955810546875)"/>
<path d="M0 0 C0.845625 0.598125 1.69125 1.19625 2.5625 1.8125 C17.68837403 10.245775 41.68602295 8.95885843 58 5 C60.50796844 4.06397759 62.86057695 3.04627517 65.23046875 1.8046875 C67 1 67 1 70 1 C70.825 1.825 71.65 2.65 72.5 3.5 C76.23859706 6.86853288 79.99255569 6.4003474 84.8046875 6.17578125 C85.52914062 6.11777344 86.25359375 6.05976563 87 6 C84.29030369 7.4741203 81.95378932 8.33788323 78.91015625 8.81640625 C78.12447266 8.94080078 77.33878906 9.06519531 76.52929688 9.19335938 C75.71525391 9.31517578 74.90121094 9.43699219 74.0625 9.5625 C73.28326172 9.68818359 72.50402344 9.81386719 71.70117188 9.94335938 C59.29387878 11.85911765 46.84380682 12.23215622 34.3125 12.25 C33.55818695 12.25233643 32.8038739 12.25467285 32.02670288 12.25708008 C17.85484774 12.2735201 4.0263792 11.10928619 -10 9 C-9.71484375 7.1015625 -9.71484375 7.1015625 -9 5 C-5.5625 3.375 -5.5625 3.375 -2 2 C-1.34 1.34 -0.68 0.68 0 0 Z " fill="#B0C0C7" transform="translate(222,453)"/>
<path d="M0 0 C1.81065467 -0.003896 3.62130844 -0.0082325 5.43196106 -0.01298523 C9.21679655 -0.02041756 13.00153873 -0.02017882 16.78637695 -0.01489258 C21.59610621 -0.00911482 26.40544826 -0.02600259 31.21511364 -0.04923725 C34.95331492 -0.06409532 38.69142567 -0.06482981 42.42965126 -0.06172752 C44.20076575 -0.06223512 45.97188608 -0.0673651 47.74297142 -0.07753944 C59.6734915 -0.13765514 70.97061482 0.49280911 82.39453125 4.30078125 C82.39453125 4.96078125 82.39453125 5.62078125 82.39453125 6.30078125 C80.20681881 6.15817031 78.01936843 6.01153664 75.83203125 5.86328125 C74.61386719 5.78207031 73.39570313 5.70085937 72.140625 5.6171875 C69.79913804 5.41941853 67.46125504 5.15462965 65.13972473 4.79107666 C61.29266309 4.28744536 57.60426393 4.15977671 53.7253418 4.13964844 C52.99245438 4.13468353 52.25956696 4.12971863 51.50447083 4.12460327 C49.09672067 4.11008794 46.68903661 4.10319378 44.28125 4.09765625 C43.44959635 4.09482887 42.6179427 4.0920015 41.76108742 4.08908844 C37.35073154 4.07413098 32.94040801 4.06488259 28.5300293 4.06054688 C24.02655907 4.05509949 19.52339689 4.03114134 15.02002239 4.00257492 C11.51332306 3.98372221 8.00669417 3.97873087 4.4999485 3.977211 C2.84294788 3.97422932 1.18594709 3.96635776 -0.47100258 3.95302582 C-10.21213037 3.88030866 -19.41021554 4.45977186 -28.97523212 6.42606735 C-30.83840054 6.79456583 -32.72185202 7.05752078 -34.60546875 7.30078125 C-35.26546875 6.64078125 -35.92546875 5.98078125 -36.60546875 5.30078125 C-24.47596691 0.35913235 -12.94332297 -0.01166275 0 0 Z " fill="#66BDDD" transform="translate(232.60546875,58.69921875)"/>
<path d="M0 0 C5.28 0 10.56 0 16 0 C14.71275182 2.46073955 13.42044687 4.91858171 12.125 7.375 C11.76019531 8.07367188 11.39539063 8.77234375 11.01953125 9.4921875 C8.2265625 14.7734375 8.2265625 14.7734375 6 17 C4.02 17 2.04 17 0 17 C0 11.39 0 5.78 0 0 Z " fill="#71CAF0" transform="translate(239,380)"/>
<path d="M0 0 C0 0.33 0 0.66 0 1 C-1.5778125 1.2475 -1.5778125 1.2475 -3.1875 1.5 C-8.22627673 2.71220122 -12.32182745 5.45721052 -16.60620117 8.25585938 C-20.82374391 11 -20.82374391 11 -23 11 C-23.33 11.66 -23.66 12.32 -24 13 C-26.64 11.35 -29.28 9.7 -32 8 C-21.69979022 -1.2701888 -13.10609721 -1.5356332 0 0 Z " fill="#74CAEA" transform="translate(221,379)"/>
<path d="M0 0 C0.66 0 1.32 0 2 0 C2.06943717 7.6580332 2.12277913 15.31603387 2.15543652 22.97430992 C2.17110864 26.53018671 2.19237444 30.08584852 2.22631836 33.64160156 C2.26507759 37.72723482 2.27969633 41.81264141 2.29296875 45.8984375 C2.30845261 47.17866791 2.32393646 48.45889832 2.33988953 49.77792358 C2.34011612 50.95899689 2.34034271 52.14007019 2.34057617 53.35693359 C2.34723801 54.40062103 2.35389984 55.44430847 2.36076355 56.5196228 C2.24171158 57.33814728 2.12265961 58.15667175 2 59 C1.01 59.66 0.02 60.32 -1 61 C-1.1250153 40.63596918 -0.91266672 20.34809861 0 0 Z " fill="#7D6B4F" transform="translate(329,377)"/>
<path d="M0 0 C0.33 0 0.66 0 1 0 C3.38776806 42.22729715 3.38776806 42.22729715 3 60 C2.01 59.67 1.02 59.34 0 59 C0 39.53 0 20.06 0 0 Z " fill="#756454" transform="translate(181,377)"/>
<path d="M0 0 C4.31564217 1.39623717 8.15098161 3.41032507 11 7 C11.71373051 9.81350981 11.57570934 12.43309291 11.375 15.3125 C11.34792969 16.05306641 11.32085937 16.79363281 11.29296875 17.55664062 C11.22268284 19.37235998 11.11507089 21.18656801 11 23 C10.34 23 9.68 23 9 23 C8.99613281 21.44539063 8.99613281 21.44539063 8.9921875 19.859375 C8.95465779 18.48954048 8.91551016 17.11974962 8.875 15.75 C8.87757813 15.06808594 8.88015625 14.38617188 8.8828125 13.68359375 C8.85220409 11.37360545 8.85220409 11.37360545 8 8 C5.22592257 5.55321525 5.22592257 5.55321525 2 4 C1.01 3.34 0.02 2.68 -1 2 C-0.67 1.34 -0.34 0.68 0 0 Z " fill="#77BDC2" transform="translate(316,64)"/>
<path d="M0 0 C2.0625 0.4375 2.0625 0.4375 4 1 C3.030625 1.61875 2.06125 2.2375 1.0625 2.875 C-2.02835362 4.65678846 -2.02835362 4.65678846 -3 7 C-3.15004973 8.3734635 -3.24838006 9.7528526 -3.31640625 11.1328125 C-3.35830078 11.93847656 -3.40019531 12.74414062 -3.44335938 13.57421875 C-3.50233398 14.83685547 -3.50233398 14.83685547 -3.5625 16.125 C-3.60568359 16.97449219 -3.64886719 17.82398437 -3.69335938 18.69921875 C-3.79954236 20.79928223 -3.90028497 22.89961948 -4 25 C-4.66 25 -5.32 25 -6 25 C-6.13530844 21.93601549 -6.2342407 18.87802874 -6.3125 15.8125 C-6.35439453 14.94818359 -6.39628906 14.08386719 -6.43945312 13.19335938 C-6.52808695 8.56667384 -6.54142413 6.67226112 -3.54296875 2.94921875 C-2.70378906 2.30597656 -1.86460937 1.66273437 -1 1 C-0.67 0.67 -0.34 0.34 0 0 Z " fill="#7EC8D5" transform="translate(191,66)"/>
<path d="M0 0 C-0.15597656 0.55429687 -0.31195313 1.10859375 -0.47265625 1.6796875 C-0.66730469 2.40414063 -0.86195313 3.12859375 -1.0625 3.875 C-1.25972656 4.59429687 -1.45695313 5.31359375 -1.66015625 6.0546875 C-2.21132607 8.07273593 -2.21132607 8.07273593 -1 10 C-6.15171623 10.09038099 -10.91913204 9.84681133 -16 9 C-16 8.67 -16 8.34 -16 8 C-14.989375 7.79375 -13.97875 7.5875 -12.9375 7.375 C-8.91450632 6.26295297 -6.45714986 4.08944769 -3.48046875 1.2421875 C-2 0 -2 0 0 0 Z " fill="#7BC9DD" transform="translate(226,387)"/>
<path d="M0 0 C5.12295063 0.48460344 8.18497849 2.12948494 12.375 5.0625 C13.43460937 5.79597656 14.49421875 6.52945312 15.5859375 7.28515625 C16.38257813 7.85105469 17.17921875 8.41695313 18 9 C17.01 9.99 16.02 10.98 15 12 C14.50371094 11.62488281 14.00742187 11.24976563 13.49609375 10.86328125 C10.03090771 8.25288493 6.55537475 5.67408111 3 3.1875 C2.01 2.465625 1.02 1.74375 0 1 C0 0.67 0 0.34 0 0 Z " fill="#67BDDD" transform="translate(306,377)"/>
<path d="M0 0 C2.79318092 0.50785108 5.41653503 1.13329121 8.125 2 C12.96927536 3.43931906 17.98108044 3.65511945 23 4 C22.67 4.99 22.34 5.98 22 7 C14.92691168 6.41057597 7.66926937 5.53345622 1 3 C0.67 2.01 0.34 1.02 0 0 Z " fill="#ECDF3D" transform="translate(190,454)"/>
<path d="M0 0 C0.33 0 0.66 0 1 0 C1.03738281 0.99 1.07476562 1.98 1.11328125 3 C1.44851388 10.17706715 2.06118587 16.35572457 5 23 C5 23.99 5 24.98 5 26 C0.26923077 22.72485207 0.26923077 22.72485207 -0.8125 19.8125 C-1.26136739 13.07948909 -0.97110713 6.67636155 0 0 Z " fill="#B2C0C0" transform="translate(184,429)"/>
<path d="M0 0 C-2.28874173 1.33858524 -4.58069656 2.67101014 -6.875 4 C-7.52597656 4.3815625 -8.17695313 4.763125 -8.84765625 5.15625 C-13.7734375 8 -13.7734375 8 -16 8 C-16 6.68 -16 5.36 -16 4 C-14.08959948 3.1319092 -12.17139263 2.28098217 -10.25 1.4375 C-9.18265625 0.96183594 -8.1153125 0.48617188 -7.015625 -0.00390625 C-4.01630163 -0.9946154 -2.86578759 -1.16161779 0 0 Z " fill="#79C9E1" transform="translate(202,377)"/>
<path d="M0 0 C0.33 0 0.66 0 1 0 C2.56057106 15.2050234 2.56057106 15.2050234 0 21 C-0.66 21.33 -1.32 21.66 -2 22 C-1.40711812 14.65835626 -0.761788 7.32613141 0 0 Z " fill="#B3BFBD" transform="translate(327,431)"/>
<path d="M0 0 C5.08938811 1.59043379 8.87456643 4.7446951 13 8 C12.34 8.66 11.68 9.32 11 10 C7.04 7.36 3.08 4.72 -1 2 C-0.67 1.34 -0.34 0.68 0 0 Z " fill="#DCBE20" transform="translate(313,377)"/>
<path d="M0 0 C-2.92903058 2.33364352 -5.88568203 4.04960836 -9.25 5.6875 C-10.58804688 6.34298828 -10.58804688 6.34298828 -11.953125 7.01171875 C-12.62859375 7.33785156 -13.3040625 7.66398437 -14 8 C-14 7.01 -14 6.02 -14 5 C-12.23628182 3.96692229 -10.46374967 2.94887951 -8.6875 1.9375 C-7.70136719 1.36902344 -6.71523437 0.80054688 -5.69921875 0.21484375 C-3 -1 -3 -1 0 0 Z " fill="#DBBF26" transform="translate(202,379)"/>
<path d="M0 0 C4.08378283 0.74250597 8.01939223 1.82923301 12 3 C12 3.33 12 3.66 12 4 C3.42857143 4.28571429 3.42857143 4.28571429 0 2 C0 1.34 0 0.68 0 0 Z " fill="#F8E923" transform="translate(190,454)"/>
<path d="M0 0 C1.32 1.65 2.64 3.3 4 5 C3.67 5.66 3.34 6.32 3 7 C1.68 7 0.36 7 -1 7 C-1.04254356 5.00045254 -1.04080783 2.99958364 -1 1 C-0.67 0.67 -0.34 0.34 0 0 Z " fill="#7AC9DF" transform="translate(186,366)"/>
</svg>
